<svg id="Capa_1" enable-background="new 0 0 512 512" height="512" viewBox="0 0 512 512" width="512" xmlns="http://www.w3.org/2000/svg"><g><path d="m477.94 155.708c-2.65-64.333-55.805-115.855-120.776-115.855h-202.328c-64.971 0-118.127 51.522-120.776 115.855-19.259 2.94-34.06 19.616-34.06 39.683v.23c0 20.028 14.744 36.676 33.947 39.664v29.114c0 37.521 30.525 68.045 68.045 68.045h48.69c-2.749 9.586-4.225 19.705-4.225 30.162 0 60.402 49.141 109.543 109.543 109.543s109.543-49.141 109.543-109.543c0-10.457-1.475-20.576-4.225-30.162h48.689c37.52 0 68.045-30.524 68.045-68.045v-29.114c19.204-2.989 33.948-19.637 33.948-39.665v-.23c0-20.066-14.802-36.742-34.06-39.682zm-323.104-95.855h78.248l-16.23 16.354c-3.891 3.92-3.867 10.252.054 14.142 1.95 1.936 4.497 2.902 7.044 2.902 2.571 0 5.143-.986 7.098-2.956l24.95-25.142 24.95 25.141c3.892 3.92 10.223 3.943 14.142.054 3.92-3.89 3.944-10.222.054-14.142l-16.229-16.354h78.248c53.786 0 97.877 42.31 100.741 95.395h-403.811c2.863-53.085 46.954-95.394 100.741-95.394zm100.455 127.522 24.936 28.389h-52.497zm-50.84 23.654-31.43-35.782h66.169zm66.807-35.782h66.169l-34.739 35.782zm-251.258 20.373v-.23c0-11.107 9.036-20.143 20.143-20.143h106.258l35.589 40.517h-141.847c-11.107 0-20.143-9.037-20.143-20.144zm236 256.527c-49.374 0-89.543-40.169-89.543-89.543s40.169-89.542 89.543-89.542 89.543 40.168 89.543 89.542-40.169 89.543-89.543 89.543zm202.053-187.75c0 26.492-21.553 48.045-48.045 48.045h-56.644c-18.229-35.238-55.029-59.38-97.364-59.38s-79.135 24.142-97.363 59.38h-56.645c-26.492 0-48.045-21.553-48.045-48.045v-28.634h404.106zm33.947-68.777c0 11.107-9.036 20.144-20.144 20.144h-145.89l39.336-40.517h106.554c11.107 0 20.144 9.036 20.144 20.143z"/><path d="m287.819 331.096c-3.906-3.904-10.236-3.904-14.142 0l-17.677 17.677-17.677-17.677c-3.906-3.903-10.237-3.904-14.142 0-3.905 3.905-3.906 10.237-.001 14.143l17.677 17.677-17.677 17.677c-3.905 3.905-3.905 10.237.001 14.143 1.953 1.952 4.512 2.929 7.071 2.929s5.119-.977 7.071-2.929l17.677-17.678 17.677 17.677c1.953 1.952 4.512 2.929 7.071 2.929s5.118-.977 7.071-2.929c3.905-3.905 3.905-10.237 0-14.143l-17.677-17.677 17.677-17.677c3.906-3.905 3.906-10.237 0-14.142z"/></g></svg>